# xmcd CD database file
#
# Track frame offsets:
#	150
#	16825
#	46942
#	70615
#	90030
#	117210
#	139257
#	155620
#	171255
#	188935
#
# Disc length: 2928 seconds
#
# Revision: 0
# Processed by: cddbd v1.5.1PL0 Copyright (c) Steve Scherf et al.
# Submitted via: CDex 1.51
#
DISCID=770b6e0a
DTITLE=Stylus - For The Love Of Music
DYEAR=1977
DGENRE=Soul
TTITLE0=For The Love Of Music
TTITLE1=Musical Man
TTITLE2=Movin' On Home
TTITLE3=So Much Love
TTITLE4=Gettin' In The Groove
TTITLE5=Nature Is Giving
TTITLE6=I Just Don't Wanna Fall In Love Right Now
TTITLE7=We All Need One Another
TTITLE8=What's Right For You
TTITLE9=Love Is All We Need
EXTD=YEAR: 1977
EXTT0=
EXTT1=
EXTT2=
EXTT3=
EXTT4=
EXTT5=
EXTT6=
EXTT7=
EXTT8=
EXTT9=
PLAYORDER=
